<svg xmlns="http://www.w3.org/2000/svg" version="1.1" xmlns:xlink="http://www.w3.org/1999/xlink" xmlns:svgjs="http://svgjs.dev/svgjs" width="1000" height="1125" viewBox="0 0 1000 1125"><g transform="matrix(1,0,0,1,1.7053025658242404e-13,0)"><svg viewBox="0 0 320 360" data-background-color="#ffffff" preserveAspectRatio="xMidYMid meet" height="1125" width="1000" xmlns="http://www.w3.org/2000/svg" xmlns:xlink="http://www.w3.org/1999/xlink"><g id="tight-bounds" transform="matrix(1,0,0,1,0,0)"><svg viewBox="0 0 320 360" height="360" width="320"><g><svg></svg></g><g><svg viewBox="0 0 320 360" height="360" width="320"><g><path xmlns="http://www.w3.org/2000/svg" d="M20.961 227.22l3.726 4.658-1.863-6.056c-0.466-2.795-3.726 0.466-1.863 1.398M25.153 224.425c1.397 2.329 2.795 4.658 2.795 6.987 0 3.261 2.795 4.658 5.123 5.589-3.261-3.726-5.124-13.974-7.918-12.576M204.017 26.929c7.918 0 15.371-0.932 23.756 0.931 20.495 5.124 37.729 15.371 49.374 29.811l32.606 52.169c1.397 13.042 4.192 27.482 3.726 43.319 3.261 0 2.795-4.658 6.521-5.59-3.726 9.316-5.59 20.961-6.521 34.469-2.329-7.453 0-18.632 0.466-24.687-3.261 5.124-5.124 1.397-5.124-0.932 0.466-3.726-1.397-3.261-2.795-4.658-5.124-4.658-8.384-9.782-12.11-17.7 2.329-6.055 2.795-14.905-4.658-19.563-2.329-1.397-5.124-3.726-6.521-7.453-1.863-5.124-5.124-11.179-4.193-19.097 0.466-2.329-6.987 5.124-11.179 1.863-18.166-12.576-36.332-27.016-58.224-39.127-11.645 0-20.029-4.192-24.221-9.316-3.726-4.658-0.932-10.713 4.658-11.179 3.261 0 6.987-0.932 9.782 0.932 0.466-1.863 2.329-4.192 4.657-4.192M157.904 16.215l0.932 0.466c4.658 0.932 6.987 7.453 12.11 5.124 0 3.261 0.466 6.521-0.466 8.85-1.397 3.726-5.59 3.726-8.85 3.726-31.208-1.863-49.374 11.179-68.471 22.358-5.124 3.261-10.713 5.59-14.906 9.782-20.029 18.632-41.921 35.866-47.045 70.335l-4.192 38.195c-0.466 4.192-5.124 8.384-4.192 13.508l3.26 22.824c-3.261-3.261-5.124 0.932-4.192 2.795 0.466 1.397 2.329 6.055 5.124 1.863 3.726 6.987 7.453 20.495 12.576 26.55 15.837 18.632 36.332 35.4 53.101 52.169 4.192-0.932 7.453-0.932 8.384-3.727 1.397 2.795-1.397 5.59-3.726 6.056 7.453 4.658 15.837 8.85 27.016 9.781 14.44 0.932 27.948 3.261 40.524 6.522 6.521-1.863 13.042-2.795 20.029-3.261 2.329 0 3.726-3.726 6.521-4.658l0.466-4.658c2.795 4.192 2.329-1.397 0.466-4.192 3.261 2.795 4.192 5.124 5.589 6.987 0-1.397 3.726-6.521 3.727-0.466l0.931-6.055c1.397-0.932 1.863 5.124 3.261 0.931 1.397-4.192 4.192-0.932 6.987-2.329-0.932 1.863-0.466 5.59 2.794 3.261l3.727-3.261c2.329 5.59 6.055 3.261 7.918 2.329 20.495-13.042 40.99-28.413 60.553-43.784l-0.466 6.055 2.329-7.453c2.329 2.329 4.192 0.466 5.124-0.931 2.795-4.658 6.521-9.316 12.577-13.508-7.453 20.029-16.303 35.866-27.482 48.908l-4.658 5.59c0 3.261-0.932 7.453-4.658 7.918-1.863 0.466-5.59-0.932-8.384 1.863-1.397 1.863 3.261 5.59-0.466 2.795-3.261-2.329-6.521 0-10.248 0.932-2.795 0.932 1.863 3.726 2.795 5.589 0.932 1.863 1.863 3.726 1.398 6.056l-5.124-5.59c-6.055 3.261-9.782 9.316-14.906 13.974-2.329 1.863-1.397 5.124-1.397 7.918-3.261 0-6.987-0.932-8.85 0.932-1.397 1.863-0.932 4.658-0.932 7.453-4.658-0.466-5.124-7.453-9.315-6.056-4.192 0.932-8.85 1.397-12.577 3.727 2.795 5.59-4.658 2.329-3.726 3.26-6.987-4.192-13.042-7.453-20.495-4.658-15.837-5.124-35.4-2.795-49.84-0.931 0-2.329 0.466-4.658-0.466-5.124-0.932 2.329-3.726 1.397-3.26 1.397-8.85-6.055-17.7-9.782-27.016-14.905-8.384 0.932-16.303-3.261-18.632-5.59-6.521-6.055-13.974-2.795-20.029-4.192-13.042-3.261-17.7-16.769-19.098-26.084-0.932-4.658-4.658-6.521-6.055-6.056-6.055-19.563-15.371-37.263-22.824-55.429-1.863-4.658-1.397-9.316-1.397-14.44 2.329 0.932 4.658 0.466 4.192-2.794-2.329-15.371-7.918-27.016-13.974-38.195 3.261-15.837 3.726-34.469 11.179-48.443 6.521-12.576 18.632-19.098 27.016-29.811 2.795-3.726 2.795-8.85 5.59-12.11 9.316-9.316 18.632-19.098 28.879-27.482 4.658-3.726 10.247 0 17.234-1.397 2.329-8.384 11.645-15.837 20.495-13.508 3.726 0.932 11.179-8.85 13.508-9.782 3.726-1.397 1.863 3.726 1.863 6.987 8.85-6.987 20.961-10.713 32.14-14.906" fill="#ff0000" fill-rule="nonzero" stroke="none" stroke-width="1" stroke-linecap="butt" stroke-linejoin="miter" stroke-miterlimit="10" stroke-dasharray="" stroke-dashoffset="0" font-family="none" font-weight="none" font-size="none" text-anchor="none" style="mix-blend-mode: normal" data-fill-palette-color="tertiary"></path></g><g transform="matrix(1,0,0,1,64,107.36283185840708)"><svg viewBox="0 0 192 145.27433628318585" height="145.27433628318585" width="192"><g><svg viewBox="0 0 192 145.27433628318585" height="145.27433628318585" width="192"><g><svg viewBox="0 0 192 145.27433628318585" height="145.27433628318585" width="192"><g><svg viewBox="0 0 192 145.27433628318585" height="145.27433628318585" width="192"><g id="textblocktransform"><svg viewBox="0 0 192 145.27433628318585" height="145.27433628318585" width="192" id="textblock"><g><svg viewBox="0 0 192 145.27433628318585" height="145.27433628318585" width="192"><g transform="matrix(1,0,0,1,0,0)"><svg width="192" viewBox="0.550000011920929 -29.450000762939453 45.20000076293945 34.20000076293945" height="145.27433628318585" data-palette-color="#ff0000"><path d="M34.85 1.25L34.85 1.25Q33.3 1.25 32.6-0.13 31.9-1.5 31.9-3.63 31.9-5.75 32.8-9.45L32.8-9.45Q31.05-9.6 26.85-10.15L26.85-10.15Q19.9-1.55 15.3 1.8L15.3 1.8Q11.35 4.75 7.1 4.75L7.1 4.75Q4.4 4.75 2.48 3.4 0.55 2.05 0.55-0.6L0.55-0.6Q0.55-1.1 0.8-1.53 1.05-1.95 1.3-1.75 1.55-1.55 1.55-0.6L1.55-0.6Q1.55 1.1 2.88 1.95 4.2 2.8 6.1 2.8L6.1 2.8Q10.2 2.8 14.18 0.13 18.15-2.55 25-10.35L25-10.35Q17.65-11.25 15.3-11.25L15.3-11.25Q8.95-11.25 7.45-7.1L7.45-7.1Q7.25-6.55 7.25-6.08 7.25-5.6 7.45-5.23 7.65-4.85 7.53-4.63 7.4-4.4 7.1-4.42 6.8-4.45 6.6-4.75L6.6-4.75Q6.05-5.7 6.05-6.6L6.05-6.6Q6.05-9.7 7.18-11.18 8.3-12.65 9.8-13.05L9.8-13.05Q11.6-13.55 14-13.55 16.4-13.55 26.1-11.65L26.1-11.65Q28.8-14.75 34.3-21.63 39.8-28.5 39.8-28.6L39.8-28.6 39.85-28.6Q39.9-28.65 40.1-28.75L40.1-28.75Q41.3-29.45 42.7-29.45L42.7-29.45Q43.2-29.45 43.2-28.95L43.2-28.95Q43.2-28.9 43.15-28.83 43.1-28.75 43.05-28.63 43-28.5 42.95-28.4L42.95-28.4Q38.15-20.45 35.5-10.5L35.5-10.5 35.35-10.15 36.6-10.1Q37-10.05 38.02-10.05 39.05-10.05 40.2-10.53 41.35-11 41.68-11.55 42-12.1 42.25-11.8 42.5-11.5 42.3-11.15L42.3-11.15Q41.75-10.15 40.35-9.7L40.35-9.7Q39.15-9.2 37.98-9.2 36.8-9.2 36.45-9.2L36.45-9.2 35.1-9.25Q34.15-4.9 34.15-2.33 34.15 0.25 35.55 0.25L35.55 0.25Q36.9 0.25 39.75-1.9 42.6-4.05 45.1-7.45L45.1-7.45Q45.25-7.65 45.5-7.55 45.75-7.45 45.75-7.3 45.75-7.15 45.68-6.93 45.6-6.7 44.9-5.8L44.9-5.8Q42.8-3 39.75-0.5L39.75-0.5Q37.55 1.25 34.85 1.25ZM37.6-23.9L37.6-23.9Q37.65-24 37.73-24.18 37.8-24.35 37.85-24.45L37.85-24.45Q31.6-15.9 27.8-11.25L27.8-11.25 33.05-10.4Q34.45-15.85 37.6-23.9Z" opacity="1" transform="matrix(1,0,0,1,0,0)" fill="#ff0000" class="wordmark-text-0" data-fill-palette-color="primary" id="text-0"></path></svg></g></svg></g></svg></g></svg></g><g></g></svg></g></svg></g></svg></g></svg></g><defs></defs></svg><rect width="320" height="360" fill="none" stroke="none" visibility="hidden"></rect></g></svg></g></svg>